<svg xmlns="http://www.w3.org/2000/svg" version="1.1" xmlns:xlink="http://www.w3.org/1999/xlink" width="1000" height="1000"><g clip-path="url(#SvgjsClipPath1201)"><rect width="1000" height="1000" fill="#ffffff"></rect><g transform="matrix(1.953125,0,0,1.953125,0,0)"><svg xmlns="http://www.w3.org/2000/svg" version="1.1" xmlns:xlink="http://www.w3.org/1999/xlink" width="512" height="512"><svg width="512" height="512" viewBox="0 0 512 512" fill="none" xmlns="http://www.w3.org/2000/svg">
<g clip-path="url(#clip0_1_2)">
<path d="M412 0H100C44.7715 0 0 44.7715 0 100V412C0 467.228 44.7715 512 100 512H412C467.228 512 512 467.228 512 412V100C512 44.7715 467.228 0 412 0Z" fill="url(#paint0_linear_1_2)"></path>
<path d="M256 68C176 68 106 170 106 290C106 380 160 444 256 444C352 444 406 380 406 290C406 170 336 68 256 68Z" stroke="white" stroke-width="42"></path>
<path d="M149 259.5L216.955 308L355.5 218" stroke="white" stroke-width="42" stroke-linecap="round" stroke-linejoin="round"></path>
</g>
<defs>
<linearGradient id="paint0_linear_1_2" x1="0" y1="0" x2="512" y2="512" gradientUnits="userSpaceOnUse">
<stop stop-color="#FFBF00"></stop>
<stop offset="1" stop-color="#D43D40"></stop>
</linearGradient>
<clipPath id="clip0_1_2">
<rect width="512" height="512" fill="white"></rect>
</clipPath>
<clipPath id="SvgjsClipPath1201"><rect width="1000" height="1000" x="0" y="0" rx="300" ry="300"></rect></clipPath></defs>
</svg></svg></g></g></svg>